<svg xmlns="http://www.w3.org/2000/svg" viewBox="0 0 64 64" fill="none">
  <!-- SyllabusStack Icon: 3D Stacked Box with S -->
  <g transform="translate(7, 8)">
    <!-- Bottom box layer (orange) -->
    <path d="M10 44 L25 52 L40 44 L40 38 L25 46 L10 38 Z" fill="#E89A3C"/>
    <path d="M25 46 L25 52 L40 44 L40 38 Z" fill="#D4872F"/>

    <!-- Middle box layer (orange) -->
    <path d="M10 32 L25 40 L40 32 L40 26 L25 34 L10 26 Z" fill="#E89A3C"/>
    <path d="M25 34 L25 40 L40 32 L40 26 Z" fill="#D4872F"/>

    <!-- Top box base (orange) -->
    <path d="M10 20 L25 28 L40 20 L40 14 L25 22 L10 14 Z" fill="#E89A3C"/>
    <path d="M25 22 L25 28 L40 20 L40 14 Z" fill="#D4872F"/>

    <!-- Top surface (lighter orange) -->
    <path d="M10 14 L25 22 L40 14 L25 6 Z" fill="#F5A742"/>

    <!-- Purple S shape overlay -->
    <path d="M14 10 L14 18 L22 22 L22 28 L14 24 L14 32 L30 40 L30 32 L22 28 L22 22 L30 26 L30 18 Z" fill="#4A3660"/>
  </g>
</svg>
