<svg xmlns="http://www.w3.org/2000/svg" viewBox="0 0 280 60" fill="none">
  <!-- Icon: 3D Stacked Box with S -->
  <g transform="translate(0, 5)">
    <!-- Bottom box layer (orange) -->
    <path d="M8 38 L25 48 L42 38 L42 32 L25 42 L8 32 Z" fill="#E89A3C"/>
    <path d="M25 42 L25 48 L42 38 L42 32 Z" fill="#D4872F"/>

    <!-- Middle box layer (orange) -->
    <path d="M8 28 L25 38 L42 28 L42 22 L25 32 L8 22 Z" fill="#E89A3C"/>
    <path d="M25 32 L25 38 L42 28 L42 22 Z" fill="#D4872F"/>

    <!-- Top box with S shape -->
    <!-- Back orange part -->
    <path d="M8 18 L25 28 L42 18 L42 8 L25 18 L8 8 Z" fill="#E89A3C"/>
    <path d="M25 18 L25 28 L42 18 L42 8 Z" fill="#D4872F"/>

    <!-- Purple S shape integrated -->
    <path d="M12 8 L12 14 L20 18 L20 22 L12 18 L12 24 L28 32 L28 26 L20 22 L20 18 L28 22 L28 16 Z" fill="#4A3660"/>

    <!-- Top surface highlight -->
    <path d="M8 8 L25 18 L42 8 L25 -2 Z" fill="#F5A742"/>
  </g>

  <!-- Text: SyllabusStack -->
  <text x="52" y="40" font-family="system-ui, -apple-system, BlinkMacSystemFont, 'Segoe UI', Roboto, sans-serif" font-size="26" font-weight="700">
    <tspan fill="#2D2351">Syllabus</tspan><tspan fill="#E89A3C">Stack</tspan>
  </text>
</svg>
