<svg xmlns="http://www.w3.org/2000/svg" viewBox="0 0 300 50" fill="none">
  <!-- Icon: 3D Stacked Box with S - scaled and positioned -->
  <g transform="translate(2, 2) scale(0.85)">
    <!-- Bottom box layer -->
    <path d="M12 42 L27 50 L42 42 L42 36 L27 44 L12 36 Z" fill="#E89A3C"/>
    <path d="M27 44 L27 50 L42 42 L42 36 Z" fill="#D4872F"/>

    <!-- Middle box layer -->
    <path d="M12 30 L27 38 L42 30 L42 24 L27 32 L12 24 Z" fill="#E89A3C"/>
    <path d="M27 32 L27 38 L42 30 L42 24 Z" fill="#D4872F"/>

    <!-- Top box layer -->
    <path d="M12 18 L27 26 L42 18 L42 12 L27 20 L12 12 Z" fill="#E89A3C"/>
    <path d="M27 20 L27 26 L42 18 L42 12 Z" fill="#D4872F"/>

    <!-- Top surface -->
    <path d="M12 12 L27 20 L42 12 L27 4 Z" fill="#F5A742"/>

    <!-- Purple S shape -->
    <path d="M16 8 L16 16 L24 20 L24 26 L16 22 L16 30 L32 38 L32 30 L24 26 L24 20 L32 24 L32 16 Z" fill="#4A3660"/>
  </g>

  <!-- Text as paths for better rendering -->
  <!-- S -->
  <path d="M58 35.5c0 2.8 2.2 4.5 5.8 4.5 4.2 0 6.8-2 6.8-5.2 0-2.5-1.5-4-5-4.8l-2.2-.5c-2-.5-2.8-1.1-2.8-2.2 0-1.4 1.2-2.3 3.2-2.3 2.1 0 3.4 1 3.5 2.6h3.2c-.2-3.2-2.6-5.2-6.6-5.2-3.8 0-6.4 2-6.4 5 0 2.4 1.5 3.9 4.8 4.6l2.3.5c2.1.5 2.9 1.2 2.9 2.4 0 1.5-1.4 2.4-3.6 2.4-2.3 0-3.7-1-3.8-2.8h-3.1z" fill="#2D2351"/>
  <!-- y -->
  <path d="M73 44.5h3.1l1.8-5.1h.1l4.8 13.6h3.3l-7-18.5h-3.4l-5.8 15.5h3.1l1.5-4h5.5l-.9 2.5h-4.6l-1.5-4z" fill="#2D2351"/>
  <!-- l -->
  <path d="M88 22.5h3v17h-3z" fill="#2D2351"/>
  <!-- l -->
  <path d="M94 22.5h3v17h-3z" fill="#2D2351"/>
  <!-- a -->
  <path d="M100 35c0 3 2.2 5 5.5 5 2.3 0 4-.9 4.8-2.5h.1v2.2h2.9v-9.4c0-3.2-2.3-5-6-5-3.4 0-5.8 1.7-6 4.3h3c.2-1.2 1.3-2 3-2 1.9 0 3 .9 3 2.5v1.1l-3.8.2c-3.6.2-5.5 1.7-5.5 4.3v-.7zm3 .4c0-1.3 1-2 2.8-2.2l3.5-.2v1.1c0 1.9-1.6 3.2-3.8 3.2-1.6 0-2.5-.7-2.5-1.9z" fill="#2D2351"/>
  <!-- b -->
  <path d="M116 22.5h3v7.1h.1c.6-1.5 2.1-2.4 4.1-2.4 3.3 0 5.4 2.5 5.4 6.4s-2.1 6.4-5.4 6.4c-2 0-3.5-.9-4.2-2.4h-.1v2.1h-2.9v-17.2zm6.3 15.3c2.1 0 3.4-1.7 3.4-4.2s-1.3-4.2-3.4-4.2-3.4 1.6-3.4 4.2 1.3 4.2 3.4 4.2z" fill="#2D2351"/>
  <!-- u -->
  <path d="M131 32.9v6.8h-3v-12h2.9v2.2h.1c.6-1.5 2-2.4 3.9-2.4 3 0 4.6 1.8 4.6 4.9v7.3h-3v-6.8c0-1.8-.9-2.8-2.6-2.8-1.7 0-2.9 1.2-2.9 3.1v-.3z" fill="#2D2351"/>
  <!-- s -->
  <path d="M142 36c0 2.5 2 4 5.2 4 3.5 0 5.5-1.5 5.5-4 0-1.9-1.1-3-3.6-3.5l-2-.4c-1.3-.3-1.8-.7-1.8-1.4 0-.9.8-1.5 2.1-1.5 1.4 0 2.2.6 2.3 1.6h2.8c-.1-2.4-2-3.9-5.1-3.9-3 0-5 1.5-5 3.8 0 1.8 1.1 2.9 3.5 3.4l2 .4c1.4.3 1.9.8 1.9 1.5 0 1-.9 1.6-2.3 1.6-1.5 0-2.4-.6-2.6-1.7h-2.9v.1z" fill="#2D2351"/>

  <!-- Stack in orange -->
  <!-- S -->
  <path d="M158 35.5c0 2.8 2.2 4.5 5.8 4.5 4.2 0 6.8-2 6.8-5.2 0-2.5-1.5-4-5-4.8l-2.2-.5c-2-.5-2.8-1.1-2.8-2.2 0-1.4 1.2-2.3 3.2-2.3 2.1 0 3.4 1 3.5 2.6h3.2c-.2-3.2-2.6-5.2-6.6-5.2-3.8 0-6.4 2-6.4 5 0 2.4 1.5 3.9 4.8 4.6l2.3.5c2.1.5 2.9 1.2 2.9 2.4 0 1.5-1.4 2.4-3.6 2.4-2.3 0-3.7-1-3.8-2.8h-3.1z" fill="#E89A3C"/>
  <!-- t -->
  <path d="M174 24.5h-2.5v2.5h2.5v8.5c0 2.8 1.3 4.2 4.4 4.2.7 0 1.4-.1 1.8-.2v-2.4c-.3 0-.7.1-1.1.1-1.2 0-1.8-.5-1.8-1.7v-8.5h3v-2.5h-3v-4h-3.3v4z" fill="#E89A3C"/>
  <!-- a -->
  <path d="M182 35c0 3 2.2 5 5.5 5 2.3 0 4-.9 4.8-2.5h.1v2.2h2.9v-9.4c0-3.2-2.3-5-6-5-3.4 0-5.8 1.7-6 4.3h3c.2-1.2 1.3-2 3-2 1.9 0 3 .9 3 2.5v1.1l-3.8.2c-3.6.2-5.5 1.7-5.5 4.3v-.7zm3 .4c0-1.3 1-2 2.8-2.2l3.5-.2v1.1c0 1.9-1.6 3.2-3.8 3.2-1.6 0-2.5-.7-2.5-1.9z" fill="#E89A3C"/>
  <!-- c -->
  <path d="M198 33.5c0-4 2.3-6.5 5.8-6.5 3.2 0 5.3 2 5.5 4.8h-3c-.3-1.4-1.2-2.3-2.6-2.3-1.9 0-3 1.5-3 4s1.2 4 3 4c1.4 0 2.4-.8 2.7-2.2h3c-.3 2.9-2.4 4.8-5.6 4.8-3.6 0-5.8-2.5-5.8-6.6z" fill="#E89A3C"/>
  <!-- k -->
  <path d="M212 22.5h3v9.9h.1l4.6-5.4h3.5l-5 5.6 5.3 7.1h-3.5l-3.9-5.4-1.1 1.2v4.2h-3v-17.2z" fill="#E89A3C"/>
</svg>
